<svg height="512" viewBox="0 0 512 512" width="512" xmlns="http://www.w3.org/2000/svg"><g><g fill="#57a4ff"><path d="m416 32-304-16-16 48h320z"/><path d="m395.83 400.15 12.17-304.15h-304l16 400h272a48 48 0 0 0 3.83-95.85zm-75.13-160.15 24 48h-49zm72.58 223.95c-.42.03-.85.05-1.28.05a16 16 0 0 1 0-32 16.454 16.454 0 0 1 2.55.2 16 16 0 0 1 -1.27 31.75z"/></g><g fill="#004fac"><path d="m440 104a8 8 0 0 0 8-8v-32a8 8 0 0 0 -8-8h-16v-24a8 8 0 0 0 -7.58-7.99l-304-16a7.99 7.99 0 0 0 -8.01 5.46l-14.18 42.53h-18.23a8 8 0 0 0 -8 8v32a8 8 0 0 0 8 8h24.31l15.7 392.32a8 8 0 0 0 7.99 7.68h272a56 56 0 0 0 12.11-110.67l11.58-289.33zm-322.34-79.69 290.34 15.28v16.41h-300.9zm10.03 463.69-15.36-384h287.34l-11.53 288.15a55.95 55.95 0 0 0 -35.28 95.85zm304.31-40a40 40 0 1 1 -40-40 40.04 40.04 0 0 1 40 40zm-352-360v-16h352v16z"/><path d="m351.86 284.42-24-48a8 8 0 0 0 -7.09-4.42h-.07a7.992 7.992 0 0 0 -7.09 4.3l-25 48a8 8 0 0 0 7.09 11.7h15.72a55.98 55.98 0 1 1 -27.43-56.51 8 8 0 0 0 8.02-13.85 72.012 72.012 0 1 0 35.53 70.36h17.16a8 8 0 0 0 7.16-11.58zm-42.97-4.42 11.67-22.4 11.2 22.4z"/><path d="m368 448a24 24 0 1 0 24-24 24.027 24.027 0 0 0 -24 24zm32 0a8 8 0 1 1 -8-8 8.009 8.009 0 0 1 8 8z"/></g></g></svg>