<svg id="Layer_1" enable-background="new 0 0 512 512" height="512" viewBox="0 0 512 512" width="512" xmlns="http://www.w3.org/2000/svg"><g><g><g><g><path d="m376.886 150.352s-74.16 40.302-74.16 117.817c0 74.42 74.16 117.817 74.16 117.817l-46.187 19.939-74.699-29.723-79.105 29.724-41.781-19.939s74.16-43.397 74.16-117.817c0-77.515-74.16-117.817-74.16-117.817l48.63-18.053 72.543 6.017 73.788-6.017z" fill="#ffe1d1"/><g><path d="m216 376.202-56.726 21.315 17.621 8.409 58.532-21.994z" fill="#ffe1d1"/><path d="m302.725 268.169c0-77.515 74.16-117.817 74.16-117.817l-46.81-18.053-33.018 2.693 39.828 15.36s-74.16 40.302-74.16 117.817c0 74.42 74.16 117.818 74.16 117.818l-27.001 11.657 20.814 8.283 46.187-19.939c.001-.001-74.16-43.398-74.16-117.819z" fill="#ffd9c4"/></g><g fill="#9ee8c0"><path d="m255.712 171.903c22.688 0 35.07 9.626 35.07 9.626 27.254-39.041 86.103-31.177 86.103-31.177s-14.974-22.996-52.372-28.088c-43.029-5.859-68.226 16.053-68.226 16.053h-.576.576-.576s-25.198-21.912-68.226-16.053c-37.397 5.092-52.372 28.088-52.372 28.088s58.849-7.863 86.103 31.177c0 0 12.382-9.626 35.07-9.626z"/><path d="m256.288 364.436c-22.688 0-35.07-9.626-35.07-9.626-27.255 39.041-86.103 31.177-86.103 31.177s14.974 22.996 52.372 28.088c43.029 5.859 68.226-16.053 68.226-16.053h.576-.576.576s25.198 21.912 68.226 16.053c37.397-5.092 52.372-28.088 52.372-28.088s-58.849 7.863-86.103-31.177c0 0-12.382 9.626-35.07 9.626z"/></g></g></g></g><g><path d="m477.075 126.854c-22.17-37.862-53.896-69.61-91.748-91.812-3.572-2.096-8.167-.898-10.264 2.675-2.096 3.573-.898 8.168 2.675 10.264 35.643 20.906 65.517 50.801 86.392 86.453 21.504 36.724 32.87 78.761 32.87 121.566 0 64.374-25.068 124.894-70.587 170.413s-106.039 70.587-170.413 70.587-124.894-25.068-170.413-70.587-70.587-106.039-70.587-170.413 25.068-124.894 70.587-170.413 106.039-70.587 170.413-70.587c30.247 0 59.749 5.537 87.688 16.456 3.858 1.509 8.208-.396 9.715-4.255 1.508-3.858-.397-8.208-4.255-9.715-29.686-11.603-61.025-17.486-93.148-17.486-68.38 0-132.667 26.629-181.02 74.98-48.351 48.353-74.98 112.64-74.98 181.02s26.629 132.667 74.98 181.02c48.353 48.351 112.64 74.98 181.02 74.98s132.667-26.629 181.02-74.98c48.351-48.353 74.98-112.64 74.98-181.02 0-45.466-12.077-90.124-34.925-129.146z"/><path d="m384.384 150.283c-.012-1.427-.441-3.01-1.309-4.167-24.554-36.518-83.836-40.058-119.716-21.24-.524-10.821-2.661-26.388-9.64-41.631-4.037-8.816-17.675-2.572-13.639 6.245 5.795 12.655 7.691 25.852 8.223 35.21-35.601-18.475-95.51-15.228-119.474 21.56-2.345 3.604-1.069 8.618 2.696 10.678.178.097 18.011 9.952 35.521 28.73 23.044 24.713 34.729 52.471 34.729 82.502 0 28.793-11.71 56.187-34.806 81.418-17.558 19.182-35.435 29.804-35.648 29.929-3.634 2.129-4.784 7.039-2.488 10.567.52.796 13.069 19.614 42.608 28.236 9.311 2.714 13.512-11.682 4.203-14.399-8.925-2.605-15.946-6.316-21.246-9.952 4.477-.219 9.468-.678 14.739-1.526 22.981-3.696 41.486-13.271 53.968-27.837 6.476 3.218 17.65 7.271 32.923 7.326 15.237-.055 26.398-4.107 32.869-7.325 16.979 19.815 43.472 28.148 68.82 29.368-26.373 18.103-71.213 19.791-96.507-1.612-2.826-2.457-7.585-2.459-10.413-.004-.143.124-14.524 12.377-40.153 14.793-9.655.91-8.245 15.836 1.408 14.934 21.689-2.045 36.805-10.232 43.938-14.975 35.689 23.831 101.629 22.195 127.181-17.031 2.294-3.529 1.13-8.431-2.491-10.562-.179-.105-18.074-10.729-35.648-29.93-23.096-25.231-34.806-52.625-34.806-81.418 0-45.82 30.71-89.469 70.246-111.23 2.399-1.306 3.936-3.927 3.912-6.657zm-195.886-20.588c20.611-2.807 45.778.456 62.289 14.277 2.793 2.424 7.489 2.544 10.408.017 25.394-21.321 70.142-19.762 96.547-1.626-25.349 1.195-51.867 9.558-68.844 29.367-19.889-9.891-45.904-9.893-65.795 0-16.98-19.813-43.472-28.146-68.819-29.366 7.574-5.198 18.751-10.564 34.214-12.669zm145.837 45.367c-25.586 27.276-39.11 59.472-39.11 93.108 0 32.343 13.507 64.119 39.061 91.895 6.871 7.468 13.718 13.691 19.711 18.627-17.96-1.505-42.686-7.578-57.064-28.175-3.091-3.631-6.658-4.186-10.703-1.667-.107.08-10.899 8.012-30.203 8.083-19.358-.07-30.15-8.002-30.208-8.045-4.05-2.534-7.634-1.991-10.751 1.629-14.314 20.504-39.033 26.595-57.01 28.13 5.98-4.93 12.806-11.137 19.656-18.583 25.554-27.775 39.061-59.552 39.061-91.895 0-33.636-13.524-65.832-39.11-93.108-6.498-6.927-12.979-12.704-18.741-17.335 17.876 1.635 42.01 7.849 56.144 28.095 3.119 3.621 6.703 4.163 10.753 1.628 15.075-11.717 45.226-11.097 60.358 0 3.322 2.582 8.26 1.943 10.753-1.628 14.07-20.155 38.196-26.385 56.087-28.049-5.747 4.624-12.207 10.385-18.684 17.29z"/><path d="m243.905 250.045c-3.998-1.087-8.12 1.269-9.208 5.265l-6.445 23.662c-2.479 9.1 11.897 13.4 14.473 3.942l6.445-23.662c1.089-3.996-1.269-8.119-5.265-9.207z"/><path d="m276.632 255.31c-2.55-9.356-17.022-5.414-14.473 3.942l6.446 23.662c2.505 9.193 17.03 5.442 14.473-3.942z"/><path d="m413.6 313.373c-2.946-9.239-17.237-4.683-14.291 4.556l7.358 23.081c1.034 3.243 5.006 5.683 8.379 5.12l23.896-3.985c9.566-1.596 7.098-16.38-2.468-14.796l-8.31 1.386c10.936-23.234 16.504-48.81 16.153-74.7-.364-26.722-6.739-52.221-18.95-75.787-4.46-8.611-17.78-1.709-13.318 6.9 11.127 21.477 16.938 44.722 17.269 69.091.309 22.724-4.382 45.177-13.621 65.712z"/><path d="m98.4 207.511c2.892 9.073 17.24 4.693 14.291-4.556l-7.358-23.081c-1.133-3.552-4.702-5.736-8.379-5.12l-23.896 3.985c-9.565 1.596-7.098 16.381 2.468 14.796l8.31-1.386c-10.936 23.234-16.504 48.81-16.153 74.7.364 26.722 6.739 52.221 18.95 75.787 4.337 8.372 17.769 1.688 13.318-6.9-11.127-21.477-16.938-44.722-17.269-69.091-.309-22.724 4.382-45.177 13.621-65.712z"/></g></g></svg>